#!OML:ASF E:\motion texture\Top Level 1\Subject 1\Session 1\male.ASF
:FULLY-SPECIFIED
:DEGREES
638
root -43.6458 17.3635 -0.0508983 96.4056 -86.5326 -91.1728
lowerback 0.6166 -0.696078 -0.224436
upperback 1.24795 -0.932382 -1.54278
thorax 0.909701 -0.466976 -1.4556
lowerneck -6.92778 -14.4088 -19.3983
upperneck 5.37057 -19.5229 19.5981
head 6.69549 -9.28464 7.23989
rclavicle 8.15017e-015 0
rhumerus -11.476 78.5934 -83.1177
rradius 49.9353
rwrist 34.015
rhand -33.1998 -8.97357
rfingers 7.12502
rthumb -6.40707 -38.8567
lclavicle 8.15017e-015 0
lhumerus -27.8051 11.8751 79.1202
lradius 30.2295
lwrist -42.9936
lhand -13.5044 28.8262
lfingers 7.12502
lthumb 12.607 58.4258
rfemur -33.2152 2.33343 21.639
rtibia 15.9785
rfoot 7.35908 -12.6698
rtoes 4.31004
lfemur -4.13068 -3.67388 -18.1711
ltibia 34.5819
lfoot -18.9002 -10.9208
ltoes -3.39826
639
root -43.7901 17.3863 -0.0507617 96.0877 -86.243 -90.7204
lowerback 0.531188 -0.660516 0.0887699
upperback 1.20163 -0.882951 -1.3209
thorax 0.910023 -0.439178 -1.40443
lowerneck -6.67815 -14.4807 -19.4954
upperneck 5.20039 -19.6778 19.872
head 6.67497 -9.36938 7.33148
rclavicle 5.96354e-015 2.54444e-014
rhumerus -12.436 78.2681 -82.5531
rradius 50.2649
rwrist 33.8697
rhand -33.3535 -8.62164
rfingers 7.12502
rthumb -6.55547 -38.5002
lclavicle 5.96354e-015 2.54444e-014
lhumerus -29.0741 16.0956 76.5498
lradius 28.1915
lwrist -45.5436
lhand -13.5763 29.0944
lfingers 7.12502
lthumb 12.5376 58.6983
rfemur -33.4095 2.35027 22.0612
rtibia 16.9352
rfoot 7.61043 -12.5071
rtoes 6.35971
lfemur -4.11983 -3.46538 -17.6789
ltibia 35.0764
lfoot -18.0521 -11.5386
ltoes -3.77632
640
root -43.9371 17.4159 -0.0456911 95.8855 -85.9637 -90.2234
lowerback 0.218307 -0.623227 0.441897
upperback 1.10345 -0.831649 -1.08816
thorax 0.984589 -0.409908 -1.36695
lowerneck -6.51082 -14.5903 -19.6093
upperneck 5.28376 -19.8755 19.9487
head 6.73299 -9.47098 7.34564
rclavicle 7.35503e-015 7.95139e-016
rhumerus -12.6909 77.6306 -81.1457
rradius 50.7534
rwrist 33.4152
rhand -33.5326 -7.53235
rfingers 7.12502
rthumb -6.72836 -37.4054
lclavicle 7.35503e-015 7.95139e-016
lhumerus -30.5986 20.3259 73.6679
lradius 26.1748
lwrist -47.7105
lhand -14.1783 29.3466
lfingers 7.12502
lthumb 11.9572 58.985
rfemur -33.717 2.32463 22.4773
rtibia 17.8934
rfoot 7.23428 -12.3697
rtoes 6.81267
lfemur -4.41182 -3.19391 -17.191
ltibia 35.7238
lfoot -16.9781 -12.3217
ltoes -4.72608
641
root -44.0831 17.4442 -0.0457135 95.7961 -85.7382 -90.0009
lowerback 0.134275 -0.648828 0.667028
upperback 1.07618 -0.866728 -0.886394
thorax 1.00261 -0.425625 -1.28753
lowerneck -6.58906 -14.6884 -19.5941
upperneck 5.36755 -20.0368 20.0678
head 6.81838 -9.53809 7.34524
rclavicle -1.03368e-014 -2.46493e-014
rhumerus -11.8804 77.2281 -78.668
rradius 51.3837
rwrist 33.4768
rhand -33.9369 -8.88145
rfingers 7.12502
rthumb -7.11862 -38.7417
lclavicle -1.03368e-014 -2.46493e-014
lhumerus -32.3992 24.7041 70.2939
lradius 24.4394
lwrist -49.6165
lhand -14.6082 30.0385
lfingers 7.12502
lthumb 11.5426 59.7007
rfemur -33.7449 2.5695 22.7141
rtibia 18.6489
rfoot 6.90569 -12.1193
rtoes 8.49221
lfemur -4.45979 -2.97199 -16.7427
ltibia 36.2594
lfoot -15.8408 -13.0124
ltoes -4.19803
642
root -44.23 17.4757 -0.0421546 95.6163 -85.6678 -89.85
lowerback 0.267574 -0.68364 0.773589
upperback 0.980963 -0.913087 -0.746351
thorax 0.829703 -0.449421 -1.20146
lowerneck -6.3327 -14.712 -19.6382
upperneck 5.38008 -20.1409 20.2069
head 6.82198 -9.59959 7.39463
rclavicle 2.38542e-015 1.27222e-014
rhumerus -11.2325 76.3828 -76.2975
rradius 52.0804
rwrist 33.4121
rhand -34.6767 -9.39355
rfingers 7.12502
rthumb -7.83277 -39.2284
lclavicle 2.38542e-015 1.27222e-014
lhumerus -34.9014 28.9213 66.3345
lradius 23.0193
lwrist -51.3691
lhand -15.0179 30.509
lfingers 7.12502
lthumb 11.1475 60.1929
rfemur -33.4592 2.72415 22.7833
rtibia 19.1536
rfoot 6.98714 -11.7515
rtoes 10.5576
lfemur -4.35146 -2.77202 -16.5079
ltibia 36.8087
lfoot -14.5171 -13.7447
ltoes -5.29576
643
root -44.3732 17.5085 -0.0362605 96.3981 -85.609 -90.6363
lowerback 0.287682 -0.71022 0.887062
upperback 1.04847 -0.94952 -0.617367
thorax 0.886947 -0.466626 -1.13345
lowerneck -6.44128 -14.7593 -19.5623
upperneck 5.33834 -20.2167 20.3548
head 6.85422 -9.62462 7.41012
rclavicle 9.74045e-015 -4.77083e-015
rhumerus -8.57367 75.3509 -71.9207
rradius 52.879
rwrist 33.214
rhand -35.3021 -9.69867
rfingers 7.12502
rthumb -8.43629 -39.5102
lclavicle 9.74045e-015 -4.77083e-015
lhumerus -37.4768 32.9187 62.1562
lradius 21.8868
lwrist -52.8357
lhand -14.9712 31.4131
lfingers 7.12502
lthumb 11.1925 61.0945
rfemur -33.1322 2.87205 22.883
rtibia 19.5291
rfoot 7.12911 -11.347
rtoes 12.4896
lfemur -4.31143 -2.56729 -16.3034
ltibia 37.3864
lfoot -13.2188 -14.4096
ltoes -6.51149
